{"title":"Juan Magan Ft. Pitbull - Bailando Por El Mundo (Premios Lo Nuest","uid":7060107,"size":105179986,"categoryP":"video","categoryS":"music_videos","magnet":"?xt=urn:btih:a9f71e5e76c2928dba7a571ea1b3cde28a35514c&amp;dn=Juan+Magan+Ft.+Pitbull+-+Bailando+Por+El+Mundo+%28Premios+Lo+Nuest&amp;tr=udp%3A%2F%2Ftracker.openbittorrent.com%3A80&amp;tr=udp%3A%2F%2Fopen.demonii.com%3A1337&amp;tr=udp%3A%2F%2Ftracker.coppersurfer.tk%3A6969&amp;tr=udp%3A%2F%2Fexodus.desync.com%3A6969","seeders":1,"leechers":0,"uploader":"MusicVideos-HQ","files":1,"time":1330318215,"description":"General\n\nFormat                           : MPEG-4\nFormat profile                   : Base Media\nCodec ID                         : isom\nFile size                        : 100 MiB\nDuration                         : 3mn 7s\nOverall bit rate                 : 4 478 Kbps\nEncoded date                     : UTC 2012-02-26 18:03:56\nTagged date                      : UTC 2012-02-26 18:03:56\n\nVideo\nID                               : 1\nFormat                           : AVC\nFormat/Info                      : Advanced Video Codec\nFormat profile                   : &lt;a class=&quot;__cf_email__&quot; href=&quot;/cdn-cgi/l/email-protection&quot; data-cfemail=&quot;fcb4959b94bcb0cfd2cc&quot;&gt;[email&amp;#160;protected]&lt;/a&gt;&lt;script cf-hash='f9e31' type=&quot;text/javascript&quot;&gt;\n/* &lt;![CDATA[ */!function(){try{var t=&quot;currentScript&quot;in document?document.currentScript:function(){for(var t=document.getElementsByTagName(&quot;script&quot;),e=t.length;e--;)if(t[e].getAttribute(&quot;cf-hash&quot;))return t[e]}();if(t&amp;&amp;t.previousSibling){var e,r,n,i,c=t.previousSibling,a=c.getAttribute(&quot;data-cfemail&quot;);if(a){for(e=&quot;&quot;,r=parseInt(a.substr(0,2),16),n=2;a.length-n;n+=2)i=parseInt(a.substr(n,2),16)^r,e+=String.fromCharCode(i);e=document.createTextNode(e),c.parentNode.replaceChild(e,c)}}}catch(u){}}();/* ]]&gt; */&lt;/script&gt;\nFormat settings, CABAC           : Yes\nFormat settings, ReFrames        : 2 frames\nCodec ID                         : avc1\nCodec ID/Info                    : Advanced Video Coding\nDuration                         : 3mn 7s\nBit rate mode                    : Variable\nBit rate                         : 4 232 Kbps\nMaximum bit rate                 : 12.5 Mbps\nWidth                            : 640 pixels\nHeight                           : 480 pixels\nDisplay aspect ratio             : 4:3\nFrame rate mode                  : Constant\nFrame rate                       : 29.970 fps\nColor space                      : YUV\nChroma subsampling               : 4:2:0\nBit depth                        : 8 bits\nScan type                        : Progressive\nBits/(Pixel*Frame)               : 0.460\nStream size                      : 98.8 MiB (98%)\n\n\n\nAudio\nID                               : 2\nFormat                           : AAC\nFormat/Info                      : Advanced Audio Codec\nFormat profile                   : LC\nCodec ID                         : 40\nDuration                         : 3mn 7s\nBit rate mode                    : Variable\nBit rate                         : 60.3 Kbps\nMaximum bit rate                 : 66.1 Kbps\nChannel(s)                       : 2 channels\nChannel positions                : Front: L R\nSampling rate                    : 44.1 KHz\nCompression mode                 : Lossy\nStream size                      : 1.35 MiB (1%)\n\n\n","torrent":{"xt":"urn:btih:a9f71e5e76c2928dba7a571ea1b3cde28a35514c","amp;dn":"Juan+Magan+Ft.+Pitbull+-+Bailando+Por+El+Mundo+%28Premios+Lo+Nuest","amp;tr":["udp%3A%2F%2Ftracker.openbittorrent.com%3A80","udp%3A%2F%2Fopen.demonii.com%3A1337","udp%3A%2F%2Ftracker.coppersurfer.tk%3A6969","udp%3A%2F%2Fexodus.desync.com%3A6969"],"infoHash":"a9f71e5e76c2928dba7a571ea1b3cde28a35514c","infoHashBuffer":{"type":"Buffer","data":[169,247,30,94,118,194,146,141,186,122,87,30,161,179,205,226,138,53,81,76]},"announce":[],"urlList":[]}}